# xmcd CD database file
#
# Track frame offsets:
#	150
#	22639
#	40827
#	55226
#	68729
#	101702
#	121696
#	141607
#	154128
#	168563
#	190298
#	206036
#	220246
#	240698
#	263894
#	278513
#
# Disc length: 3911 seconds
#
# Revision: 0
# Processed by: cddbd v1.5.2PL0 Copyright (c) Steve Scherf et al.
# Submitted via: CDex 1.70beta2
#
DISCID=e70f4510
DTITLE=Metropolitan Jazz Band - MJB plays Jazz and Classic
DYEAR=2007
DGENRE=Jazz
TTITLE0=Caravan
TTITLE1=Autumn Leaves
TTITLE2=Alla Turca
TTITLE3=Air
TTITLE4=Corcovado
TTITLE5=Flight Of The Bumble-Bee
TTITLE6=Stardust
TTITLE7=Amorada
TTITLE8=Gypsy
TTITLE9=Take the A Train
TTITLE10=Nevertheless
TTITLE11=Concert eDur for Clarinet
TTITLE12=Bei mir bist Du schön
TTITLE13=Blue Bossa
TTITLE14=Tico Tico
TTITLE15=I Got Rhythm
EXTD=YEAR: 2007
EXTT0=
EXTT1=
EXTT2=
EXTT3=
EXTT4=
EXTT5=
EXTT6=
EXTT7=
EXTT8=
EXTT9=
EXTT10=
EXTT11=
EXTT12=
EXTT13=
EXTT14=
EXTT15=
PLAYORDER=
